<svg xmlns="http://www.w3.org/2000/svg" width="17.368" height="23.881" viewBox="0 0 17.368 23.881">
    <path id="Path_1035" fill="#1dd950" d="M12.684 16.2a4.342 4.342 0 0 0 4.342-4.342V5.342a4.342 4.342 0 1 0-8.684 0v6.513a4.342 4.342 0 0 0 4.342 4.345zM10.513 5.342a2.171 2.171 0 0 1 4.342 0v6.513a2.171 2.171 0 0 1-4.342 0zm10.855 6.513a1.086 1.086 0 0 0-2.171 0 6.513 6.513 0 1 1-13.026 0 1.086 1.086 0 1 0-2.171 0 8.685 8.685 0 0 0 7.6 8.608v2.247H9.428a1.086 1.086 0 0 0 0 2.171h6.513a1.086 1.086 0 1 0 0-2.171H13.77v-2.247a8.685 8.685 0 0 0 7.598-8.608z" data-name="Path 1035" transform="translate(-4 -1)"/>
</svg>
