<svg xmlns="http://www.w3.org/2000/svg" width="15.45" height="21.244" viewBox="0 0 15.45 21.244">
    <defs>
        <linearGradient id="linear-gradient" x1=".5" x2=".5" y2="1" gradientUnits="objectBoundingBox">
            <stop offset=".067" stop-color="#e83866"/>
            <stop offset=".801" stop-color="#e57a3c"/>
        </linearGradient>
    </defs>
    <path id="Path_1035" fill="url(#linear-gradient)" d="M11.725 14.519a3.863 3.863 0 0 0 3.863-3.863V4.863a3.863 3.863 0 1 0-7.725 0v5.794a3.863 3.863 0 0 0 3.862 3.862zM9.794 4.863a1.931 1.931 0 1 1 3.863 0v5.794a1.931 1.931 0 1 1-3.863 0zm9.656 5.794a.966.966 0 0 0-1.931 0 5.794 5.794 0 1 1-11.588 0 .966.966 0 0 0-1.931 0 7.726 7.726 0 0 0 6.76 7.658v2H8.828a.966.966 0 1 0 0 1.931h5.794a.966.966 0 1 0 0-1.931h-1.931v-2a7.726 7.726 0 0 0 6.759-7.659z" data-name="Path 1035" transform="translate(-4 -1)"/>
</svg>
