<svg xmlns="http://www.w3.org/2000/svg" width="16" height="16" viewBox="0 0 16 16">
    <g id="Path_996" fill="#e83866" stroke="none" data-name="Path 996">
        <path d="M8 15.15C4.057 15.15.85 11.943.85 8 .85 4.057 4.057.85 8 .85c3.943 0 7.15 3.207 7.15 7.15 0 3.943-3.207 7.15-7.15 7.15z"/>
        <path fill="#1c3668" d="M8 1.7C4.526 1.7 1.7 4.526 1.7 8c0 3.474 2.826 6.3 6.3 6.3 3.474 0 6.3-2.826 6.3-6.3 0-3.474-2.826-6.3-6.3-6.3M8 0c4.418 0 8 3.582 8 8s-3.582 8-8 8-8-3.582-8-8 3.582-8 8-8z"/>
    </g>
</svg>
