<svg xmlns="http://www.w3.org/2000/svg" id="Component_1_4" width="16.048" height="10.657" data-name="Component 1 – 4" viewBox="0 0 16.048 10.657">
    <g id="video-camera">
        <g id="Group_1370" data-name="Group 1370">
            <path id="Path_1052" fill="#fff" d="M15.786 87.685a.627.627 0 0 0-.566-.085L12 88.685v-1.118A1.559 1.559 0 0 0 10.448 86h-8.9A1.559 1.559 0 0 0 0 87.567v7.522a1.559 1.559 0 0 0 1.548 1.567h8.9A1.559 1.559 0 0 0 12 95.089v-1.117l3.225 1.085a.627.627 0 0 0 .827-.594v-6.269a.627.627 0 0 0-.266-.509zm-.993 5.905l-3.225-1.085a.627.627 0 0 0-.827.594v1.99a.3.3 0 0 1-.294.313h-8.9a.3.3 0 0 1-.294-.313v-7.522a.3.3 0 0 1 .294-.313h8.9a.3.3 0 0 1 .294.313v1.99a.627.627 0 0 0 .827.594l3.225-1.085z" data-name="Path 1052" transform="translate(0 -86)"/>
        </g>
    </g>
</svg>
