<svg xmlns="http://www.w3.org/2000/svg" width="21.565" height="12.939" viewBox="0 0 21.565 12.939">
    <path id="Path_1044" fill="#e21956" d="M23.059 7.24a1.076 1.076 0 0 0-1.078 0l-3.807 1.876A3.234 3.234 0 0 0 14.939 6h-9.7A3.235 3.235 0 0 0 2 9.235V15.7a3.235 3.235 0 0 0 3.235 3.235h9.7a3.234 3.234 0 0 0 3.235-3.116l3.839 1.919a1.068 1.068 0 0 0 1.553-.96V8.157a1.077 1.077 0 0 0-.503-.917zm-7.041 8.46a1.079 1.079 0 0 1-1.078 1.078h-9.7A1.079 1.079 0 0 1 4.157 15.7V9.235a1.079 1.079 0 0 1 1.078-1.078h9.7a1.079 1.079 0 0 1 1.078 1.078zm5.391-.669l-3.235-1.617v-1.9L21.409 9.9z" data-name="Path 1044" transform="translate(-2 -6)"/>
</svg>
