<svg xmlns="http://www.w3.org/2000/svg" id="shopping-cart_2_" width="18.512" height="15.186" data-name="shopping-cart (2)" viewBox="0 0 18.512 15.186">
    <defs>
        <style>
            .cls-1{fill:#fff}
        </style>
    </defs>
    <g id="Group_1387" data-name="Group 1387">
        <g id="Group_1386" data-name="Group 1386">
            <path id="Path_1056" d="M18.368 48.166a.723.723 0 0 0-.579-.29H4.168l-.4-1.357A.723.723 0 0 0 3.077 46H.723a.723.723 0 1 0 0 1.446h1.812L5.42 57.3a.723.723 0 0 0 .694.52H15.3a.723.723 0 0 0 .7-.52l2.487-8.5a.723.723 0 0 0-.119-.634zm-3.608 8.208h-8.1l-2.068-7.051h12.232z" class="cls-1" data-name="Path 1056" transform="translate(0 -46)"/>
        </g>
    </g>
    <g id="Group_1389" data-name="Group 1389" transform="translate(7.784 13.233)">
        <g id="Group_1388" data-name="Group 1388">
            <circle id="Ellipse_5" cx=".976" cy=".976" r=".976" class="cls-1" data-name="Ellipse 5"/>
        </g>
    </g>
    <g id="Group_1391" data-name="Group 1391" transform="translate(11.679 13.233)">
        <g id="Group_1390" data-name="Group 1390">
            <circle id="Ellipse_6" cx=".976" cy=".976" r=".976" class="cls-1" data-name="Ellipse 6"/>
        </g>
    </g>
</svg>
